<?xml version="1.0" encoding="UTF-8" standalone="no"?>
<svg
   xmlns:sketch="http://www.bohemiancoding.com/sketch/ns"
   xmlns:dc="http://purl.org/dc/elements/1.1/"
   xmlns:cc="http://creativecommons.org/ns#"
   xmlns:rdf="http://www.w3.org/1999/02/22-rdf-syntax-ns#"
   xmlns:svg="http://www.w3.org/2000/svg"
   xmlns="http://www.w3.org/2000/svg"
   xmlns:sodipodi="http://sodipodi.sourceforge.net/DTD/sodipodi-0.dtd"
   xmlns:inkscape="http://www.inkscape.org/namespaces/inkscape"
   width="31px"
   height="31px"
   viewBox="0 0 31 31"
   version="1.1"
   id="svg2"
   inkscape:version="0.48.4 r9939"
   sodipodi:docname="citation.svg">
  <metadata
     id="metadata14">
    <rdf:RDF>
      <cc:Work
         rdf:about="">
        <dc:format>image/svg+xml</dc:format>
        <dc:type
           rdf:resource="http://purl.org/dc/dcmitype/StillImage" />
        <dc:title>Slice 2</dc:title>
      </cc:Work>
    </rdf:RDF>
  </metadata>
  <sodipodi:namedview
     pagecolor="#ffffff"
     bordercolor="#666666"
     borderopacity="1"
     objecttolerance="10"
     gridtolerance="10"
     guidetolerance="10"
     inkscape:pageopacity="0"
     inkscape:pageshadow="2"
     inkscape:window-width="1180"
     inkscape:window-height="642"
     id="namedview12"
     showgrid="false"
     inkscape:zoom="7.6129032"
     inkscape:cx="13.529661"
     inkscape:cy="15.5"
     inkscape:window-x="75"
     inkscape:window-y="34"
     inkscape:window-maximized="0"
     inkscape:current-layer="svg2" />
  <!-- Generator: Sketch Beta 3.1.1 (8761) - http://www.bohemiancoding.com/sketch -->
  <title
     id="title4">Slice 2</title>
  <desc
     id="desc6">Created with Sketch Beta.</desc>
  <defs
     id="defs8" />
  <g
     id="Page-1"
     stroke="none"
     stroke-width="1"
     fill="none"
     fill-rule="evenodd"
     sketch:type="MSPage">
    <path
       d="m 21.799539,18.994143 c 0,-0.274871 -0.09621,-0.508509 -0.288613,-0.700919 L 19.366941,16.14924 c -0.19241,-0.19241 -0.426047,-0.288614 -0.700918,-0.288614 -0.288615,0 -0.535995,0.109944 -0.742149,0.329844 0.02062,0.02062 0.08589,0.08418 0.195845,0.190691 0.109943,0.106513 0.183819,0.180384 0.221614,0.221614 0.0378,0.04123 0.08933,0.106513 0.154615,0.195844 0.06528,0.08934 0.109943,0.176948 0.133998,0.262845 0.02405,0.08589 0.03607,0.180383 0.03607,0.28346 0,0.27487 -0.09621,0.508508 -0.288614,0.700918 -0.192404,0.192409 -0.426042,0.288613 -0.700912,0.288613 -0.103083,0 -0.197562,-0.01201 -0.28346,-0.03607 -0.08589,-0.02405 -0.173511,-0.06871 -0.262845,-0.133998 -0.08933,-0.06528 -0.154614,-0.116818 -0.195844,-0.154615 -0.04123,-0.0378 -0.115102,-0.111672 -0.221614,-0.221614 -0.106513,-0.109944 -0.170076,-0.175229 -0.190691,-0.195844 -0.226769,0.213025 -0.340151,0.463841 -0.340151,0.752455 0,0.274872 0.09621,0.508509 0.288614,0.700918 l 2.123368,2.133678 c 0.185538,0.185538 0.419176,0.278305 0.700918,0.278305 0.274872,0 0.508508,-0.08934 0.700918,-0.267998 l 1.515221,-1.504918 c 0.19241,-0.192409 0.288613,-0.42261 0.288613,-0.690609 l 0,0 z m -7.246255,-7.266871 c 0,-0.274872 -0.09621,-0.508508 -0.288614,-0.700918 L 12.141301,8.892676 C 11.94889,8.700266 11.715254,8.604063 11.440383,8.604063 c -0.268,0 -0.501637,0.09276 -0.700918,0.278306 l -1.5152213,1.504913 c -0.19241,0.192409 -0.288613,0.42261 -0.288613,0.690609 0,0.274871 0.09621,0.508509 0.288613,0.700918 l 2.1439853,2.143985 c 0.185538,0.185539 0.419175,0.278306 0.700918,0.278306 0.288615,0 0.535995,-0.106513 0.742148,-0.319536 -0.02062,-0.02062 -0.08589,-0.08418 -0.195844,-0.190691 -0.109943,-0.106513 -0.183819,-0.180384 -0.221614,-0.221614 -0.0378,-0.04123 -0.08934,-0.106513 -0.154615,-0.195844 -0.06528,-0.08934 -0.109943,-0.176948 -0.133998,-0.262845 -0.02405,-0.08589 -0.03607,-0.180383 -0.03607,-0.28346 0,-0.27487 0.09621,-0.508508 0.288614,-0.700918 0.192404,-0.19241 0.426042,-0.288613 0.700912,-0.288613 0.103083,0 0.197562,0.01201 0.28346,0.03607 0.08589,0.02405 0.173511,0.06871 0.262845,0.133998 0.08934,0.06528 0.154613,0.116818 0.195844,0.154615 0.04123,0.0378 0.115102,0.111672 0.221614,0.221614 0.106513,0.109944 0.170075,0.175229 0.190691,0.195844 0.226769,-0.213025 0.340152,-0.463841 0.340152,-0.752455 l 0,0 z m 9.225318,7.266871 c 0,0.824613 -0.292046,1.522089 -0.876148,2.092446 l -1.51522,1.504912 c -0.570358,0.570358 -1.267832,0.855533 -2.092447,0.855533 -0.831485,0 -1.532396,-0.292046 -2.102754,-0.876148 l -2.123368,-2.133677 c -0.570358,-0.570358 -0.855533,-1.267832 -0.855533,-2.092447 0,-0.845229 0.302353,-1.563319 0.90707,-2.154292 l -0.90707,-0.90707 c -0.590974,0.604717 -1.305628,0.90707 -2.143985,0.90707 -0.824614,0 -1.525525,-0.28861 -2.1027539,-0.86584 L 7.8224077,13.180646 c -0.5772296,-0.57723 -0.86584,-1.278141 -0.86584,-2.102755 0,-0.824613 0.2920463,-1.522089 0.8761476,-2.092446 L 9.3479357,7.4805324 C 9.9182941,6.9101746 10.615768,6.625 11.440383,6.625 c 0.831485,0 1.532396,0.2920463 2.102754,0.8761476 l 2.12337,2.1336774 c 0.570356,0.570358 0.855531,1.267832 0.855531,2.092447 0,0.845229 -0.302353,1.563318 -0.90707,2.154292 l 0.90707,0.90707 c 0.590973,-0.604717 1.305628,-0.90707 2.143985,-0.90707 0.824613,0 1.525525,0.28861 2.102754,0.86584 l 2.143985,2.143984 c 0.577229,0.57723 0.86584,1.278141 0.86584,2.102755 l 0,0 z"
       id="Icon-CItation"
       sketch:type="MSShapeGroup"
       style="fill:#ffffff;fill-opacity:1"
       inkscape:connector-curvature="0" />
  </g>
</svg>
