<?xml version="1.0" encoding="UTF-8" standalone="no"?>
<svg width="31px" height="31px" viewBox="0 0 31 31" version="1.1" xmlns="http://www.w3.org/2000/svg" xmlns:xlink="http://www.w3.org/1999/xlink" xmlns:sketch="http://www.bohemiancoding.com/sketch/ns">
    <!-- Generator: Sketch Beta 3.1.1 (8761) - http://www.bohemiancoding.com/sketch -->
    <title>Slice 2</title>
    <desc>Created with Sketch Beta.</desc>
    <defs></defs>
    <g id="Page-1" stroke="none" stroke-width="1" fill="none" fill-rule="evenodd" sketch:type="MSPage">
        <path d="M19.8125,18 C19.8125,17.7916656 19.7395841,17.6145841 19.59375,17.46875 L17.96875,15.84375 C17.8229159,15.6979159 17.6458344,15.625 17.4375,15.625 C17.2187489,15.625 17.0312508,15.7083325 16.875,15.875 C16.8906251,15.8906251 16.9401037,15.9388017 17.0234375,16.0195312 C17.1067713,16.1002608 17.1627603,16.1562498 17.1914062,16.1875 C17.2200522,16.2187502 17.2591143,16.2682288 17.3085938,16.3359375 C17.3580732,16.4036462 17.391927,16.4700518 17.4101562,16.5351562 C17.4283855,16.6002607 17.4375,16.6718746 17.4375,16.75 C17.4375,16.9583344 17.3645841,17.1354159 17.21875,17.28125 C17.0729159,17.4270841 16.8958344,17.5 16.6875,17.5 C16.6093746,17.5 16.5377607,17.4908855 16.4726562,17.4726562 C16.4075518,17.454427 16.3411462,17.4205732 16.2734375,17.3710938 C16.2057288,17.3216143 16.1562502,17.2825522 16.125,17.2539062 C16.0937498,17.2252603 16.0377608,17.1692713 15.9570312,17.0859375 C15.8763017,17.0026037 15.8281251,16.9531251 15.8125,16.9375 C15.6406241,17.0989591 15.5546875,17.2890614 15.5546875,17.5078125 C15.5546875,17.7161469 15.6276034,17.8932284 15.7734375,18.0390625 L17.3828125,19.65625 C17.5234382,19.7968757 17.7005198,19.8671875 17.9140625,19.8671875 C18.1223969,19.8671875 18.2994784,19.7994798 18.4453125,19.6640625 L19.59375,18.5234375 C19.7395841,18.3776034 19.8125,18.203126 19.8125,18 L19.8125,18 Z M14.3203125,12.4921875 C14.3203125,12.2838531 14.2473966,12.1067716 14.1015625,11.9609375 L12.4921875,10.34375 C12.3463534,10.1979159 12.1692719,10.125 11.9609375,10.125 C11.7578115,10.125 11.5807299,10.1953118 11.4296875,10.3359375 L10.28125,11.4765625 C10.1354159,11.6223966 10.0625,11.796874 10.0625,12 C10.0625,12.2083344 10.1354159,12.3854159 10.28125,12.53125 L11.90625,14.15625 C12.0468757,14.2968757 12.2239573,14.3671875 12.4375,14.3671875 C12.6562511,14.3671875 12.8437492,14.2864591 13,14.125 C12.9843749,14.1093749 12.9348963,14.0611983 12.8515625,13.9804688 C12.7682287,13.8997392 12.7122397,13.8437502 12.6835938,13.8125 C12.6549478,13.7812498 12.6158857,13.7317712 12.5664062,13.6640625 C12.5169268,13.5963538 12.483073,13.5299482 12.4648438,13.4648438 C12.4466145,13.3997393 12.4375,13.3281254 12.4375,13.25 C12.4375,13.0416656 12.5104159,12.8645841 12.65625,12.71875 C12.8020841,12.5729159 12.9791656,12.5 13.1875,12.5 C13.2656254,12.5 13.3372393,12.5091145 13.4023438,12.5273438 C13.4674482,12.545573 13.5338538,12.5794268 13.6015625,12.6289062 C13.6692712,12.6783857 13.7187498,12.7174478 13.75,12.7460938 C13.7812502,12.7747397 13.8372392,12.8307287 13.9179688,12.9140625 C13.9986983,12.9973963 14.0468749,13.0468749 14.0625,13.0625 C14.2343759,12.9010409 14.3203125,12.7109386 14.3203125,12.4921875 L14.3203125,12.4921875 Z M21.3125,18 C21.3125,18.6250031 21.091148,19.1536437 20.6484375,19.5859375 L19.5,20.7265625 C19.0677062,21.1588563 18.5390656,21.375 17.9140625,21.375 C17.283851,21.375 16.7526063,21.153648 16.3203125,20.7109375 L14.7109375,19.09375 C14.2786437,18.6614562 14.0625,18.1328156 14.0625,17.5078125 C14.0625,16.8671843 14.2916644,16.3229189 14.75,15.875 L14.0625,15.1875 C13.6145811,15.6458356 13.0729198,15.875 12.4375,15.875 C11.8124969,15.875 11.2812522,15.6562522 10.84375,15.21875 L9.21875,13.59375 C8.78124781,13.1562478 8.5625,12.6250031 8.5625,12 C8.5625,11.3749969 8.78385195,10.8463563 9.2265625,10.4140625 L10.375,9.2734375 C10.8072938,8.84114367 11.3359344,8.625 11.9609375,8.625 C12.591149,8.625 13.1223937,8.84635195 13.5546875,9.2890625 L15.1640625,10.90625 C15.5963563,11.3385438 15.8125,11.8671844 15.8125,12.4921875 C15.8125,13.1328157 15.5833356,13.6770811 15.125,14.125 L15.8125,14.8125 C16.2604189,14.3541644 16.8020802,14.125 17.4375,14.125 C18.0625031,14.125 18.5937478,14.3437478 19.03125,14.78125 L20.65625,16.40625 C21.0937522,16.8437522 21.3125,17.3749969 21.3125,18 L21.3125,18 Z" id="Icon-CItation" fill="#333333" sketch:type="MSShapeGroup"></path>
    </g>
</svg>